<svg width="128" height="43" viewBox="0 0 128 43" fill="none" xmlns="http://www.w3.org/2000/svg">
<g clip-path="url(#clip0)">
<path d="M117.807 0.000138667H10.1989C9.80663 0.000138667 9.41909 0.000138667 9.02789 0.002272C8.70041 0.00440533 8.37554 0.0106027 8.04492 0.0158187C7.32666 0.0242473 6.61008 0.08726 5.90143 0.204309C5.19377 0.323907 4.50827 0.549382 3.86813 0.873109C3.22877 1.19958 2.64457 1.62378 2.13672 2.13035C1.62621 2.63548 1.20066 3.21936 0.876427 3.85951C0.551304 4.49839 0.325862 5.18301 0.207889 5.88972C0.0887936 6.59554 0.0247074 7.30949 0.0162054 8.02518C0.00627891 8.35222 0.00523064 8.68035 0 9.00743V33.6626C0.00523064 33.9938 0.00627891 34.3147 0.0162054 34.646C0.02471 35.3617 0.0887962 36.0756 0.207889 36.7814C0.325536 37.4885 0.550991 38.1735 0.876427 38.8126C1.20051 39.4507 1.62612 40.0322 2.13672 40.5345C2.64265 41.0434 3.22722 41.4679 3.86813 41.7918C4.50827 42.1164 5.19369 42.3432 5.90143 42.4647C6.61021 42.5808 7.32671 42.6438 8.04492 42.6533C8.37554 42.6605 8.70041 42.6647 9.02789 42.6647C9.41908 42.6668 9.80665 42.6668 10.1989 42.6668H117.807C118.191 42.6668 118.582 42.6668 118.966 42.6647C119.292 42.6647 119.627 42.6605 119.953 42.6533C120.669 42.6443 121.385 42.5813 122.092 42.4647C122.802 42.3424 123.49 42.1156 124.133 41.7918C124.773 41.4677 125.357 41.0432 125.863 40.5345C126.372 40.0302 126.799 39.4492 127.127 38.8126C127.45 38.173 127.673 37.4881 127.789 36.7814C127.908 36.0755 127.975 35.3617 127.987 34.646C127.992 34.3147 127.992 33.9938 127.992 33.6626C128 33.2751 128 32.8897 128 32.4959V10.172C128 9.78139 128 9.39389 127.992 9.00743C127.992 8.68035 127.992 8.35222 127.987 8.02514C127.975 7.30939 127.908 6.59559 127.789 5.88968C127.673 5.18337 127.449 4.49881 127.127 3.85947C126.466 2.57635 125.419 1.5319 124.133 0.873013C123.49 0.550077 122.802 0.324662 122.092 0.204213C121.385 0.0866483 120.669 0.0236136 119.953 0.0156693C119.627 0.010464 119.292 0.00421333 118.966 0.00213333C118.582 0 118.191 0 117.807 0V0.000138667Z" fill="#A6A6A6"/>
<path d="M9.03288 41.7336C8.70697 41.7336 8.38894 41.7294 8.06559 41.7222C7.39575 41.7135 6.72747 41.6553 6.06625 41.5482C5.44968 41.4423 4.8524 41.2453 4.29409 40.9638C3.74091 40.6846 3.23636 40.3184 2.79978 39.8794C2.35687 39.4456 1.98814 38.9424 1.70818 38.3898C1.42513 37.8336 1.22925 37.2375 1.12735 36.6221C1.01731 35.9609 0.957773 35.2923 0.949254 34.6221C0.942472 34.3972 0.933594 33.6482 0.933594 33.6482V9.00756C0.933594 9.00756 0.94305 8.27005 0.949307 8.05338C0.957464 7.38424 1.01666 6.71669 1.12637 6.05651C1.22846 5.43946 1.42449 4.84159 1.70769 4.2836C1.98662 3.7314 2.35331 3.22784 2.79354 2.79245C3.23328 2.35292 3.73945 1.9849 4.29357 1.70182C4.85059 1.42116 5.44675 1.22558 6.06206 1.12162C6.72546 1.01342 7.39606 0.954923 8.06822 0.946618L9.0334 0.933594H118.961L119.938 0.94714C120.604 0.955033 121.268 1.01301 121.925 1.12057C122.547 1.22583 123.149 1.42278 123.713 1.70494C124.823 2.27545 125.726 3.17803 126.296 4.2862C126.575 4.84034 126.768 5.43333 126.868 6.04505C126.98 6.71065 127.042 7.38345 127.054 8.05807C127.058 8.36015 127.058 8.68463 127.058 9.00756C127.066 9.40756 127.066 9.78828 127.066 10.1721V32.496C127.066 32.8836 127.066 33.2617 127.058 33.6429C127.058 33.9898 127.058 34.3076 127.053 34.6346C127.041 35.2972 126.98 35.958 126.871 36.6117C126.771 37.2315 126.576 37.8323 126.293 38.393C126.011 38.9396 125.644 39.4384 125.207 39.8711C124.77 40.3125 124.264 40.6807 123.71 40.9618C123.148 41.2455 122.546 41.4432 121.925 41.5482C121.264 41.6559 120.596 41.7141 119.926 41.7222C119.613 41.7294 119.285 41.7336 118.966 41.7336L117.807 41.7357L9.03288 41.7336Z" fill="black"/>
<path d="M26.4941 21.6543C26.5056 20.764 26.7428 19.8911 27.1835 19.1167C27.6242 18.3424 28.2542 17.6918 29.0148 17.2254C28.5316 16.5373 27.8942 15.9709 27.1531 15.5714C26.412 15.1719 25.5877 14.9502 24.7457 14.9239C22.9494 14.7359 21.2081 15.9957 20.2928 15.9957C19.3597 15.9957 17.9505 14.9426 16.4329 14.9737C15.4513 15.0053 14.4946 15.29 13.6562 15.7999C12.8177 16.3098 12.126 17.0277 11.6484 17.8834C9.57966 21.4551 11.1227 26.7042 13.1044 29.5913C14.0959 31.005 15.2546 32.5841 16.7708 32.5281C18.2545 32.4668 18.8086 31.5847 20.5996 31.5847C22.3739 31.5847 22.8938 32.5281 24.4407 32.4925C26.0328 32.4667 27.0358 31.0725 27.9925 29.6454C28.7049 28.6381 29.2531 27.5248 29.6167 26.3468C28.6918 25.9566 27.9025 25.3037 27.3472 24.4692C26.7919 23.6348 26.4952 22.6558 26.4941 21.6543Z" fill="white"/>
<path d="M23.5723 13.0251C24.4404 11.9859 24.868 10.6503 24.7645 9.30176C23.4383 9.44066 22.2132 10.0727 21.3335 11.072C20.9033 11.5602 20.5739 12.1281 20.3639 12.7433C20.154 13.3586 20.0678 14.009 20.1101 14.6575C20.7734 14.6643 21.4297 14.5209 22.0294 14.2382C22.6291 13.9554 23.1567 13.5406 23.5723 13.0251Z" fill="white"/>
<path d="M45.2488 28.9489H40.1856L38.9697 32.5291H36.8252L41.6209 19.2832H43.849L48.6447 32.5291H46.4636L45.2488 28.9489ZM40.71 27.2968H44.7234L42.7449 21.4864H42.6896L40.71 27.2968Z" fill="white"/>
<path d="M59.0018 27.701C59.0018 30.7021 57.3911 32.6302 54.9603 32.6302C54.3446 32.6623 53.7322 32.5209 53.1933 32.2221C52.6544 31.9233 52.2108 31.4792 51.9132 30.9406H51.8673V35.7239H49.8794V22.8719H51.8036V24.4781H51.8401C52.1513 23.9422 52.6025 23.5004 53.1454 23.1997C53.6884 22.8991 54.303 22.7509 54.9238 22.7708C57.3816 22.7708 59.0018 24.7083 59.0018 27.701ZM56.9586 27.701C56.9586 25.7458 55.9454 24.4604 54.3994 24.4604C52.8805 24.4604 51.8589 25.7729 51.8589 27.701C51.8589 29.6469 52.8805 30.95 54.3994 30.95C55.9454 30.95 56.9586 29.674 56.9586 27.701Z" fill="white"/>
<path d="M69.661 27.701C69.661 30.7021 68.0503 32.6302 65.6195 32.6302C65.0037 32.6623 64.3914 32.5209 63.8525 32.2221C63.3136 31.9232 62.87 31.4791 62.5724 30.9406H62.5264V35.7239H60.5386V22.8719H62.4627V24.4781H62.4993C62.8105 23.9421 63.2616 23.5003 63.8046 23.1997C64.3476 22.8991 64.9622 22.7509 65.5829 22.7708C68.0409 22.7708 69.661 24.7083 69.661 27.701ZM67.6178 27.701C67.6178 25.7458 66.6045 24.4604 65.0585 24.4604C63.5397 24.4604 62.5181 25.7729 62.5181 27.701C62.5181 29.6469 63.5397 30.95 65.0585 30.95C66.6045 30.95 67.6178 29.6739 67.6178 27.701H67.6178Z" fill="white"/>
<path d="M76.7058 28.8386C76.8531 30.1521 78.1327 31.0146 79.8814 31.0146C81.5569 31.0146 82.7623 30.1521 82.7623 28.9677C82.7623 27.9396 82.0353 27.324 80.3138 26.9021L78.5923 26.4885C76.1532 25.901 75.0209 24.7635 75.0209 22.9177C75.0209 20.6323 77.0181 19.0625 79.8542 19.0625C82.661 19.0625 84.5851 20.6323 84.6499 22.9177H82.6432C82.5231 21.5958 81.4273 20.7979 79.826 20.7979C78.2246 20.7979 77.1288 21.6052 77.1288 22.7802C77.1288 23.7167 77.8287 24.2677 79.5408 24.6896L81.0043 25.0479C83.7296 25.6906 84.8619 26.7823 84.8619 28.7198C84.8619 31.1979 82.8824 32.75 79.734 32.75C76.7883 32.75 74.7994 31.2343 74.6709 28.8385L76.7058 28.8386Z" fill="white"/>
<path d="M89.1519 20.5864V22.8718H90.9936V24.4416H89.1519V29.7656C89.1519 30.5927 89.5207 30.9781 90.3302 30.9781C90.5489 30.9743 90.7671 30.959 90.9842 30.9322V32.4926C90.6202 32.5605 90.2502 32.5912 89.88 32.5843C87.9193 32.5843 87.1547 31.8499 87.1547 29.977V24.4416H85.7466V22.8718H87.1547V20.5864H89.1519Z" fill="white"/>
<path d="M92.0601 27.7013C92.0601 24.6628 93.8547 22.7534 96.6531 22.7534C99.461 22.7534 101.247 24.6628 101.247 27.7013C101.247 30.7482 99.4704 32.6492 96.6531 32.6492C93.8369 32.6492 92.0601 30.7482 92.0601 27.7013ZM99.2218 27.7013C99.2218 25.617 98.2639 24.3868 96.6531 24.3868C95.0424 24.3868 94.0855 25.6263 94.0855 27.7013C94.0855 29.794 95.0424 31.0149 96.6531 31.0149C98.2639 31.0149 99.2217 29.794 99.2217 27.7013H99.2218Z" fill="white"/>
<path d="M102.886 22.8718H104.782V24.5155H104.828C104.956 24.0021 105.258 23.5485 105.682 23.2307C106.106 22.913 106.627 22.7505 107.158 22.7707C107.387 22.7699 107.615 22.7947 107.839 22.8447V24.6989C107.549 24.6107 107.248 24.5703 106.946 24.5791C106.657 24.5674 106.369 24.6182 106.102 24.7279C105.834 24.8376 105.594 25.0038 105.397 25.2148C105.2 25.4259 105.052 25.677 104.962 25.9508C104.871 26.2245 104.841 26.5146 104.874 26.8009V32.5291H102.886L102.886 22.8718Z" fill="white"/>
<path d="M117.004 29.693C116.737 31.4461 115.024 32.6493 112.834 32.6493C110.017 32.6493 108.268 30.767 108.268 27.7472C108.268 24.718 110.026 22.7534 112.75 22.7534C115.43 22.7534 117.115 24.5888 117.115 27.517V28.1961H110.275V28.3159C110.243 28.6713 110.288 29.0294 110.406 29.3663C110.523 29.7032 110.712 30.0112 110.958 30.2699C111.205 30.5286 111.503 30.7321 111.835 30.8668C112.166 31.0016 112.522 31.0645 112.88 31.0513C113.35 31.0952 113.821 30.9867 114.224 30.742C114.627 30.4973 114.94 30.1293 115.116 29.693L117.004 29.693ZM110.284 26.8107H115.126C115.144 26.4911 115.095 26.1713 114.983 25.8714C114.871 25.5714 114.698 25.2978 114.475 25.0676C114.252 24.8375 113.984 24.6558 113.687 24.534C113.39 24.4121 113.071 24.3528 112.75 24.3597C112.427 24.3577 112.106 24.4198 111.806 24.5422C111.507 24.6645 111.234 24.8449 111.005 25.0728C110.776 25.3006 110.594 25.5715 110.47 25.8698C110.347 26.1681 110.283 26.4879 110.284 26.8107V26.8107Z" fill="white"/>
<path d="M40.4612 9.31289C40.8779 9.28306 41.2961 9.34585 41.6856 9.49671C42.0751 9.64757 42.4261 9.88275 42.7134 10.1853C43.0007 10.4878 43.2171 10.8502 43.347 11.2462C43.4768 11.6422 43.5169 12.062 43.4644 12.4754C43.4644 14.5087 42.3623 15.6775 40.4612 15.6775H38.1558V9.31289H40.4612ZM39.1471 14.7774H40.3504C40.6482 14.7952 40.9463 14.7465 41.2228 14.6349C41.4994 14.5233 41.7475 14.3516 41.9491 14.1324C42.1507 13.9131 42.3008 13.6517 42.3883 13.3673C42.4759 13.083 42.4988 12.7827 42.4553 12.4884C42.4956 12.1952 42.4704 11.8968 42.3815 11.6145C42.2926 11.3322 42.1422 11.073 41.941 10.8554C41.7399 10.6379 41.4929 10.4674 41.2179 10.3563C40.943 10.2451 40.6467 10.1959 40.3504 10.2123H39.1471V14.7774Z" fill="white"/>
<path d="M44.584 13.2739C44.5537 12.9582 44.5899 12.6398 44.6903 12.3389C44.7907 12.038 44.953 11.7614 45.1669 11.5267C45.3807 11.2921 45.6414 11.1046 45.9322 10.9763C46.223 10.848 46.5375 10.7817 46.8554 10.7817C47.1734 10.7817 47.4879 10.848 47.7787 10.9763C48.0695 11.1046 48.3302 11.2921 48.544 11.5267C48.7579 11.7614 48.9202 12.038 49.0206 12.3389C49.121 12.6398 49.1572 12.9582 49.1269 13.2739C49.1578 13.5898 49.122 13.9088 49.0219 14.2101C48.9218 14.5115 48.7595 14.7886 48.5456 15.0237C48.3317 15.2588 48.0708 15.4467 47.7797 15.5753C47.4886 15.7039 47.1738 15.7703 46.8554 15.7703C46.5371 15.7703 46.2223 15.7039 45.9312 15.5753C45.6401 15.4467 45.3792 15.2588 45.1653 15.0237C44.9514 14.7886 44.7891 14.5115 44.689 14.2101C44.5889 13.9088 44.5531 13.5898 44.584 13.2739ZM48.1492 13.2739C48.1492 12.2327 47.6801 11.6239 46.857 11.6239C46.0307 11.6239 45.5659 12.2327 45.5659 13.2739C45.5659 14.3234 46.0308 14.9275 46.857 14.9275C47.6802 14.9275 48.1492 14.3192 48.1492 13.2739H48.1492Z" fill="white"/>
<path d="M55.166 15.6776H54.1799L53.1844 12.1401H53.1092L52.1178 15.6776H51.1412L49.8135 10.8745H50.7776L51.6405 14.5396H51.7115L52.7018 10.8745H53.6137L54.604 14.5396H54.6792L55.5378 10.8745H56.4884L55.166 15.6776Z" fill="white"/>
<path d="M57.605 10.8743H58.52V11.6373H58.5911C58.7116 11.3633 58.9148 11.1335 59.1725 10.9801C59.4301 10.8268 59.7293 10.7573 60.0284 10.7816C60.2628 10.764 60.4981 10.7993 60.717 10.8847C60.9358 10.9701 61.1326 11.1036 61.2927 11.2751C61.4528 11.4467 61.5722 11.652 61.6419 11.8758C61.7116 12.0996 61.73 12.3362 61.6956 12.568V15.6774H60.745V12.8061C60.745 12.0342 60.4087 11.6503 59.7057 11.6503C59.5465 11.643 59.3877 11.67 59.24 11.7295C59.0923 11.7891 58.9593 11.8798 58.8501 11.9954C58.7409 12.111 58.658 12.2488 58.6071 12.3993C58.5563 12.5498 58.5387 12.7096 58.5556 12.8675V15.6774H57.605L57.605 10.8743Z" fill="white"/>
<path d="M63.2104 8.99951H64.161V15.6776H63.2104V8.99951Z" fill="white"/>
<path d="M65.4824 13.274C65.4521 12.9583 65.4884 12.6398 65.5888 12.3389C65.6892 12.038 65.8515 11.7614 66.0654 11.5267C66.2793 11.2921 66.54 11.1046 66.8308 10.9763C67.1216 10.848 67.4361 10.7817 67.7541 10.7817C68.0721 10.7817 68.3866 10.848 68.6774 10.9763C68.9682 11.1046 69.2289 11.2921 69.4428 11.5267C69.6567 11.7614 69.8191 12.038 69.9195 12.3389C70.0199 12.6398 70.0561 12.9583 70.0258 13.274C70.0567 13.5899 70.0208 13.9089 69.9207 14.2102C69.8206 14.5116 69.6583 14.7887 69.4444 15.0238C69.2304 15.2589 68.9695 15.4468 68.6784 15.5754C68.3873 15.7039 68.0725 15.7703 67.7541 15.7703C67.4358 15.7703 67.1209 15.7039 66.8298 15.5754C66.5387 15.4468 66.2778 15.2589 66.0639 15.0238C65.8499 14.7887 65.6877 14.5116 65.5875 14.2102C65.4874 13.9089 65.4516 13.5899 65.4824 13.274ZM69.0476 13.274C69.0476 12.2328 68.5786 11.624 67.7554 11.624C66.9292 11.624 66.4643 12.2328 66.4643 13.274C66.4643 14.3235 66.9292 14.9276 67.7554 14.9276C68.5786 14.9276 69.0476 14.3193 69.0476 13.274H69.0476Z" fill="white"/>
<path d="M71.0264 14.3192C71.0264 13.4546 71.6719 12.9562 72.8178 12.8854L74.1225 12.8104V12.3958C74.1225 11.8885 73.7862 11.602 73.1364 11.602C72.6058 11.602 72.2381 11.7963 72.1326 12.1359H71.2123C71.3095 11.3109 72.0877 10.7817 73.1803 10.7817C74.3879 10.7817 75.0689 11.3812 75.0689 12.3958V15.6776H74.1539V15.0026H74.0787C73.926 15.2447 73.7116 15.4421 73.4575 15.5746C73.2033 15.7071 72.9184 15.7699 72.6319 15.7567C72.4297 15.7777 72.2253 15.7562 72.032 15.6936C71.8386 15.6309 71.6606 15.5286 71.5093 15.3932C71.358 15.2578 71.2369 15.0922 71.1537 14.9072C71.0706 14.7223 71.0272 14.522 71.0264 14.3192ZM74.1225 13.9088V13.5073L72.9463 13.5823C72.283 13.6265 71.9822 13.8515 71.9822 14.275C71.9822 14.7072 72.3582 14.9588 72.8753 14.9588C73.0268 14.9741 73.1799 14.9588 73.3254 14.9139C73.4708 14.8691 73.6058 14.7954 73.7221 14.6975C73.8385 14.5995 73.9339 14.4792 74.0027 14.3437C74.0715 14.2082 74.1122 14.0603 74.1225 13.9088Z" fill="white"/>
<path d="M76.3184 13.274C76.3184 11.7563 77.1008 10.7948 78.3177 10.7948C78.6187 10.781 78.9175 10.8529 79.179 11.0021C79.4406 11.1513 79.6542 11.3717 79.7948 11.6375H79.8658V8.99951H80.8164V15.6776H79.9055V14.9188H79.8303C79.6788 15.1828 79.4578 15.4004 79.1912 15.5481C78.9246 15.6958 78.6225 15.768 78.3177 15.7568C77.0924 15.7568 76.3184 14.7954 76.3184 13.274ZM77.3003 13.274C77.3003 14.2928 77.7819 14.9058 78.5873 14.9058C79.3884 14.9058 79.8836 14.2839 79.8836 13.2782C79.8836 12.2771 79.3832 11.6464 78.5873 11.6464C77.7871 11.6464 77.3003 12.2636 77.3003 13.274H77.3003Z" fill="white"/>
<path d="M84.749 13.2739C84.7187 12.9582 84.755 12.6398 84.8553 12.3389C84.9557 12.038 85.118 11.7614 85.3319 11.5267C85.5458 11.2921 85.8065 11.1046 86.0973 10.9763C86.388 10.848 86.7025 10.7817 87.0205 10.7817C87.3385 10.7817 87.6529 10.848 87.9437 10.9763C88.2345 11.1046 88.4952 11.2921 88.7091 11.5267C88.9229 11.7614 89.0853 12.038 89.1856 12.3389C89.286 12.6398 89.3222 12.9582 89.292 13.2739C89.3228 13.5898 89.287 13.9088 89.1869 14.2101C89.0868 14.5115 88.9246 14.7886 88.7106 15.0237C88.4967 15.2588 88.2358 15.4467 87.9448 15.5753C87.6537 15.7039 87.3388 15.7703 87.0205 15.7703C86.7021 15.7703 86.3873 15.7039 86.0962 15.5753C85.8051 15.4467 85.5442 15.2588 85.3303 15.0237C85.1164 14.7886 84.9542 14.5115 84.8541 14.2101C84.7539 13.9088 84.7182 13.5898 84.749 13.2739ZM88.3142 13.2739C88.3142 12.2327 87.8452 11.6239 87.0221 11.6239C86.1958 11.6239 85.731 12.2327 85.731 13.2739C85.731 14.3234 86.1958 14.9275 87.0221 14.9275C87.8452 14.9275 88.3142 14.3192 88.3142 13.2739Z" fill="white"/>
<path d="M90.5674 10.8743H91.4824V11.6373H91.5535C91.674 11.3633 91.8772 11.1335 92.1349 10.9801C92.3925 10.8268 92.6918 10.7573 92.9908 10.7816C93.2252 10.764 93.4605 10.7993 93.6794 10.8847C93.8982 10.9701 94.095 11.1036 94.2551 11.2751C94.4152 11.4467 94.5346 11.652 94.6043 11.8758C94.6741 12.0996 94.6924 12.3362 94.658 12.568V15.6774H93.7074V12.8061C93.7074 12.0342 93.3711 11.6503 92.6681 11.6503C92.5089 11.643 92.3501 11.67 92.2024 11.7295C92.0547 11.7891 91.9217 11.8798 91.8125 11.9954C91.7033 12.111 91.6204 12.2488 91.5695 12.3993C91.5187 12.5498 91.5011 12.7096 91.518 12.8675V15.6774H90.5674V10.8743Z" fill="white"/>
<path d="M100.029 9.67871V10.8964H101.073V11.6949H100.029V14.1647C100.029 14.6678 100.237 14.8881 100.71 14.8881C100.831 14.8877 100.952 14.8804 101.073 14.8662V15.6558C100.902 15.6862 100.729 15.7024 100.556 15.7042C99.4986 15.7042 99.0776 15.3334 99.0776 14.4074V11.6948H98.313V10.8964H99.0776V9.67871H100.029Z" fill="white"/>
<path d="M102.372 8.99951H103.314V11.6464H103.389C103.515 11.3698 103.724 11.1388 103.987 10.9848C104.25 10.8308 104.554 10.7614 104.858 10.786C105.091 10.7733 105.324 10.8121 105.54 10.8997C105.757 10.9872 105.951 11.1212 106.109 11.2922C106.268 11.4633 106.386 11.6671 106.457 11.8891C106.527 12.1111 106.548 12.3458 106.516 12.5766V15.6776H105.565V12.8104C105.565 12.0433 105.207 11.6547 104.535 11.6547C104.372 11.6413 104.207 11.6637 104.053 11.7203C103.9 11.7769 103.76 11.8663 103.645 11.9823C103.529 12.0983 103.44 12.2381 103.385 12.3918C103.329 12.5456 103.308 12.7096 103.322 12.8724V15.6776H102.372L102.372 8.99951Z" fill="white"/>
<path d="M112.059 14.3808C111.93 14.8197 111.65 15.1995 111.269 15.4535C110.887 15.7075 110.428 15.8197 109.972 15.7704C109.655 15.7787 109.339 15.7181 109.048 15.5927C108.756 15.4674 108.496 15.2803 108.284 15.0444C108.072 14.8085 107.915 14.5295 107.822 14.2268C107.729 13.924 107.704 13.6048 107.747 13.2912C107.705 12.9766 107.731 12.6567 107.823 12.3531C107.916 12.0494 108.073 11.7691 108.283 11.5312C108.494 11.2932 108.753 11.1032 109.044 10.9739C109.335 10.8446 109.65 10.7791 109.968 10.7818C111.308 10.7818 112.117 11.6949 112.117 13.2032V13.5339H108.715V13.587C108.701 13.7633 108.723 13.9407 108.781 14.1079C108.839 14.2751 108.931 14.4284 109.052 14.558C109.172 14.6875 109.319 14.7905 109.482 14.8602C109.645 14.93 109.821 14.965 109.998 14.963C110.226 14.9903 110.456 14.9494 110.66 14.8457C110.864 14.7421 111.033 14.5802 111.144 14.3807L112.059 14.3808ZM108.715 12.8329H111.148C111.16 12.6717 111.138 12.5097 111.084 12.3575C111.029 12.2053 110.943 12.0661 110.832 11.9489C110.72 11.8317 110.585 11.7391 110.435 11.6771C110.286 11.615 110.125 11.5849 109.963 11.5886C109.798 11.5865 109.635 11.6173 109.483 11.6791C109.331 11.7409 109.192 11.8325 109.076 11.9485C108.96 12.0644 108.868 12.2024 108.806 12.3543C108.744 12.5062 108.713 12.6689 108.715 12.8329H108.715Z" fill="white"/>
</g>
<defs>
<clipPath id="clip0">
<rect width="128" height="42.6667" fill="white"/>
</clipPath>
</defs>
</svg>
