<svg width="114" height="38" viewBox="0 0 114 38" fill="none" xmlns="http://www.w3.org/2000/svg">
<g clip-path="url(#clip0)">
<path d="M104.922 0.0001235H9.08337C8.73403 0.0001235 8.38888 0.0001235 8.04046 0.0020235C7.7488 0.0039235 7.45947 0.009443 7.16501 0.0140885C6.52531 0.0215952 5.88711 0.0777159 5.25596 0.181963C4.6257 0.28848 4.01518 0.489293 3.44505 0.777613C2.87562 1.06837 2.35532 1.44618 1.90302 1.89734C1.44834 2.34723 1.06933 2.86724 0.780568 3.43738C0.491005 4.00638 0.290221 4.61612 0.185151 5.24553C0.0790818 5.87415 0.0220051 6.51002 0.0144329 7.14743C0.00559216 7.4387 0.00465854 7.73094 0 8.02225V29.9808C0.00465854 30.2758 0.00559216 30.5615 0.0144329 30.8566C0.0220074 31.494 0.0790841 32.1298 0.185151 32.7584C0.289931 33.3882 0.490727 33.9983 0.780568 34.5675C1.0692 35.1358 1.44826 35.6537 1.90302 36.1011C2.35361 36.5542 2.87425 36.9323 3.44505 37.2208C4.01517 37.5099 4.62563 37.7119 5.25596 37.8201C5.88721 37.9235 6.52535 37.9797 7.16501 37.9881C7.45947 37.9945 7.7488 37.9982 8.04046 37.9982C8.38887 38.0001 8.73405 38.0001 9.08337 38.0001H104.922C105.264 38.0001 105.612 38.0001 105.954 37.9982C106.245 37.9982 106.542 37.9945 106.833 37.9881C107.471 37.9801 108.108 37.924 108.738 37.8201C109.37 37.7112 109.983 37.5092 110.556 37.2208C111.126 36.9321 111.646 36.5541 112.097 36.1011C112.55 35.6519 112.93 35.1344 113.222 34.5675C113.51 33.9979 113.709 33.3878 113.812 32.7584C113.918 32.1297 113.977 31.494 113.989 30.8566C113.993 30.5615 113.993 30.2758 113.993 29.9808C114 29.6357 114 29.2924 114 28.9417V9.05945C114 8.71155 114 8.36643 113.993 8.02225C113.993 7.73094 113.993 7.4387 113.989 7.14739C113.977 6.50992 113.918 5.8742 113.812 5.24549C113.709 4.61644 113.51 4.00675 113.222 3.43734C112.634 2.29456 111.702 1.36435 110.556 0.777527C109.983 0.489912 109.37 0.289152 108.738 0.181877C108.108 0.0771711 107.471 0.0210309 106.833 0.0139555C106.542 0.0093195 106.245 0.0037525 105.954 0.0019C105.612 0 105.264 0 104.922 0V0.0001235Z" fill="#A6A6A6"/>
<path d="M8.04545 37.1686C7.75519 37.1686 7.47195 37.1649 7.18397 37.1584C6.58739 37.1506 5.99221 37.0989 5.4033 37.0034C4.85417 36.9091 4.32222 36.7337 3.82498 36.4829C3.3323 36.2343 2.88293 35.9082 2.4941 35.5172C2.09964 35.1308 1.77123 34.6826 1.5219 34.1905C1.26981 33.6952 1.09535 33.1642 1.0046 32.6162C0.906591 32.0273 0.853566 31.4318 0.845978 30.8349C0.839938 30.6346 0.832031 29.9675 0.832031 29.9675V8.02193C0.832031 8.02193 0.840453 7.36509 0.846026 7.17211C0.853291 6.57616 0.906008 5.98163 1.00372 5.39365C1.09464 4.84409 1.26924 4.31162 1.52146 3.81465C1.76988 3.32285 2.09646 2.87437 2.48855 2.4866C2.88019 2.09515 3.33099 1.76738 3.82451 1.51525C4.32061 1.26529 4.85156 1.0911 5.39957 0.998511C5.99042 0.902149 6.58766 0.850051 7.18631 0.842654L8.04592 0.831055H105.95L106.82 0.84312C107.413 0.850149 108.005 0.901782 108.59 0.99758C109.144 1.09133 109.68 1.26674 110.182 1.51804C111.171 2.02614 111.975 2.83001 112.483 3.81697C112.731 4.3105 112.903 4.83864 112.993 5.38345C113.092 5.97625 113.147 6.57546 113.158 7.1763C113.161 7.44534 113.161 7.73432 113.161 8.02193C113.169 8.37818 113.169 8.71726 113.169 9.05913V28.9414C113.169 29.2865 113.169 29.6233 113.161 29.9628C113.161 30.2717 113.161 30.5548 113.157 30.846C113.146 31.4361 113.092 32.0247 112.995 32.6068C112.906 33.1589 112.732 33.6939 112.48 34.1933C112.229 34.6801 111.903 35.1244 111.513 35.5098C111.123 35.9029 110.673 36.2309 110.179 36.4811C109.679 36.7338 109.143 36.9099 108.59 37.0034C108.002 37.0994 107.406 37.1512 106.81 37.1584C106.531 37.1649 106.238 37.1686 105.955 37.1686L104.922 37.1705L8.04545 37.1686Z" fill="black"/>
<path d="M23.5969 19.2857C23.6072 18.4928 23.8184 17.7153 24.2109 17.0257C24.6034 16.336 25.1645 15.7566 25.8419 15.3412C25.4116 14.7283 24.8438 14.224 24.1838 13.8681C23.5238 13.5123 22.7896 13.3148 22.0397 13.2915C20.4399 13.124 18.889 14.246 18.0738 14.246C17.2428 14.246 15.9877 13.3081 14.6361 13.3358C13.7619 13.364 12.9099 13.6175 12.1631 14.0716C11.4163 14.5258 10.8003 15.1651 10.3749 15.9273C8.53246 19.1083 9.90677 23.7833 11.6717 26.3546C12.5547 27.6136 13.5867 29.0201 14.9371 28.9702C16.2585 28.9155 16.752 28.1299 18.3471 28.1299C19.9273 28.1299 20.3903 28.9702 21.7681 28.9385C23.186 28.9155 24.0794 27.6738 24.9314 26.4028C25.5659 25.5057 26.0541 24.5141 26.378 23.4649C25.5542 23.1175 24.8512 22.5359 24.3567 21.7927C23.8621 21.0495 23.5979 20.1776 23.5969 19.2857Z" fill="white"/>
<path d="M20.9952 11.6003C21.7683 10.6748 22.1492 9.4852 22.057 8.28418C20.8759 8.40789 19.7848 8.97082 19.0012 9.86081C18.6181 10.2956 18.3247 10.8014 18.1378 11.3493C17.9508 11.8973 17.874 12.4766 17.9117 13.0541C18.5025 13.0602 19.0869 12.9325 19.621 12.6807C20.1552 12.4288 20.625 12.0594 20.9952 11.6003Z" fill="white"/>
<path d="M40.3011 25.7823H35.7917L34.7088 28.9709H32.7988L37.07 17.1738H39.0544L43.3256 28.9709H41.3831L40.3011 25.7823ZM36.2588 24.3109H39.8332L38.0711 19.136H38.0218L36.2588 24.3109Z" fill="white"/>
<path d="M52.5505 24.6709C52.5505 27.3437 51.1159 29.0609 48.951 29.0609C48.4026 29.0895 47.8572 28.9636 47.3772 28.6974C46.8973 28.4313 46.5022 28.0358 46.2372 27.5561H46.1962V31.8163H44.4258V20.3699H46.1395V21.8005H46.1721C46.4492 21.3231 46.851 20.9296 47.3346 20.6619C47.8182 20.3941 48.3656 20.2621 48.9184 20.2799C51.1075 20.2799 52.5505 22.0055 52.5505 24.6709ZM50.7307 24.6709C50.7307 22.9295 49.8283 21.7847 48.4514 21.7847C47.0987 21.7847 46.1888 22.9536 46.1888 24.6709C46.1888 26.4039 47.0987 27.5645 48.4514 27.5645C49.8283 27.5645 50.7307 26.428 50.7307 24.6709Z" fill="white"/>
<path d="M62.0426 24.6709C62.0426 27.3437 60.6081 29.0609 58.4432 29.0609C57.8948 29.0895 57.3494 28.9635 56.8694 28.6974C56.3895 28.4313 55.9944 28.0357 55.7294 27.5561H55.6884V31.8163H53.918V20.3699H55.6316V21.8005H55.6642C55.9414 21.3231 56.3432 20.9296 56.8268 20.6619C57.3104 20.3941 57.8577 20.2621 58.4106 20.2799C60.5997 20.2799 62.0426 22.0055 62.0426 24.6709ZM60.2229 24.6709C60.2229 22.9295 59.3205 21.7847 57.9436 21.7847C56.5909 21.7847 55.681 22.9536 55.681 24.6709C55.681 26.4039 56.5909 27.5645 57.9436 27.5645C59.3205 27.5645 60.2229 26.428 60.2229 24.6709H60.2229Z" fill="white"/>
<path d="M68.3182 25.6844C68.4494 26.8543 69.589 27.6224 71.1464 27.6224C72.6387 27.6224 73.7123 26.8542 73.7123 25.7994C73.7123 24.8837 73.0648 24.3354 71.5316 23.9597L69.9984 23.5914C67.826 23.0681 66.8176 22.055 66.8176 20.4111C66.8176 18.3756 68.5964 16.9775 71.1222 16.9775C73.622 16.9775 75.3357 18.3756 75.3934 20.4111H73.6062C73.4992 19.2338 72.5233 18.5232 71.0971 18.5232C69.6709 18.5232 68.695 19.2421 68.695 20.2886C68.695 21.1227 69.3183 21.6134 70.8431 21.9891L72.1465 22.3083C74.5738 22.8807 75.5823 23.853 75.5823 25.5785C75.5823 27.7856 73.8193 29.1679 71.0152 29.1679C68.3917 29.1679 66.6203 27.8181 66.5059 25.6843L68.3182 25.6844Z" fill="white"/>
<path d="M79.402 18.335V20.3704H81.0422V21.7685H79.402V26.5102C79.402 27.2468 79.7305 27.59 80.4515 27.59C80.6462 27.5867 80.8406 27.573 81.0338 27.5492V28.9389C80.7097 28.9993 80.3802 29.0267 80.0505 29.0206C78.3042 29.0206 77.6232 28.3665 77.6232 26.6985V21.7685H76.3691V20.3704H77.6232V18.335H79.402Z" fill="white"/>
<path d="M81.9922 24.6714C81.9922 21.9652 83.5905 20.2646 86.0829 20.2646C88.5836 20.2646 90.1745 21.9651 90.1745 24.6714C90.1745 27.385 88.592 29.0781 86.0829 29.0781C83.5746 29.0781 81.9922 27.385 81.9922 24.6714ZM88.3706 24.6714C88.3706 22.815 87.5175 21.7193 86.0829 21.7193C84.6483 21.7193 83.7961 22.8233 83.7961 24.6714C83.7961 26.5352 84.6483 27.6225 86.0829 27.6225C87.5175 27.6225 88.3705 26.5352 88.3705 24.6714H88.3706Z" fill="white"/>
<path d="M91.6348 20.3708H93.3233V21.8347H93.3643C93.4785 21.3775 93.7472 20.9735 94.125 20.6905C94.5028 20.4075 94.9668 20.2628 95.439 20.2808C95.643 20.2801 95.8464 20.3022 96.0455 20.3467V21.998C95.788 21.9195 95.5193 21.8835 95.2501 21.8913C94.9929 21.8809 94.7364 21.9262 94.4984 22.0239C94.2604 22.1216 94.0464 22.2696 93.8712 22.4576C93.6959 22.6456 93.5635 22.8692 93.4831 23.113C93.4026 23.3569 93.3761 23.6152 93.4052 23.8702V28.9718H91.6348L91.6348 20.3708Z" fill="white"/>
<path d="M104.208 26.4452C103.97 28.0066 102.445 29.0781 100.494 29.0781C97.9851 29.0781 96.4277 27.4017 96.4277 24.7122C96.4277 22.0144 97.9935 20.2646 100.42 20.2646C102.806 20.2646 104.307 21.8993 104.307 24.5072V25.1121H98.2149V25.2187C98.1868 25.5353 98.2265 25.8542 98.3315 26.1542C98.4365 26.4543 98.6043 26.7286 98.8237 26.959C99.0432 27.1895 99.3093 27.3707 99.6043 27.4907C99.8994 27.6107 100.217 27.6667 100.535 27.655C100.954 27.6941 101.373 27.5974 101.732 27.3795C102.091 27.1615 102.37 26.8338 102.527 26.4452L104.208 26.4452ZM98.2233 23.8782H102.535C102.551 23.5936 102.508 23.3087 102.408 23.0416C102.309 22.7744 102.155 22.5307 101.956 22.3258C101.757 22.1208 101.518 21.959 101.254 21.8504C100.99 21.7419 100.706 21.6891 100.42 21.6952C100.132 21.6935 99.8457 21.7487 99.5789 21.8577C99.3121 21.9667 99.0696 22.1274 98.8654 22.3303C98.6612 22.5333 98.4993 22.7745 98.3891 23.0402C98.2789 23.3059 98.2225 23.5907 98.2233 23.8782V23.8782Z" fill="white"/>
<path d="M36.0357 8.29452C36.4068 8.26796 36.7793 8.32387 37.1262 8.45824C37.4731 8.5926 37.7857 8.80205 38.0416 9.0715C38.2975 9.34094 38.4902 9.66365 38.6058 10.0164C38.7215 10.3691 38.7572 10.743 38.7104 11.1111C38.7104 12.9221 37.7289 13.963 36.0357 13.963H33.9824V8.29452H36.0357ZM34.8653 13.1614H35.9371C36.2023 13.1772 36.4677 13.1338 36.714 13.0344C36.9603 12.935 37.1813 12.7821 37.3609 12.5869C37.5404 12.3916 37.6741 12.1588 37.7521 11.9055C37.8301 11.6522 37.8504 11.3848 37.8117 11.1227C37.8476 10.8616 37.8252 10.5958 37.746 10.3444C37.6668 10.0929 37.5328 9.86208 37.3537 9.66835C37.1745 9.47461 36.9546 9.32279 36.7097 9.22377C36.4648 9.12474 36.2009 9.08096 35.9371 9.09557H34.8653V13.1614Z" fill="white"/>
<path d="M39.7068 11.8231C39.6799 11.542 39.7121 11.2583 39.8015 10.9903C39.8909 10.7224 40.0355 10.476 40.226 10.267C40.4164 10.058 40.6486 9.89106 40.9076 9.7768C41.1666 9.66254 41.4467 9.60352 41.7299 9.60352C42.0131 9.60352 42.2931 9.66254 42.5521 9.7768C42.8111 9.89106 43.0433 10.058 43.2338 10.267C43.4242 10.476 43.5688 10.7224 43.6582 10.9903C43.7476 11.2583 43.7799 11.542 43.7529 11.8231C43.7804 12.1045 43.7485 12.3885 43.6593 12.6569C43.5702 12.9253 43.4257 13.1721 43.2352 13.3815C43.0446 13.5909 42.8123 13.7583 42.553 13.8728C42.2938 13.9873 42.0134 14.0464 41.7299 14.0464C41.4463 14.0464 41.1659 13.9873 40.9067 13.8728C40.6474 13.7583 40.4151 13.5909 40.2246 13.3815C40.034 13.1721 39.8895 12.9253 39.8004 12.6569C39.7112 12.3885 39.6794 12.1045 39.7068 11.8231ZM42.8821 11.8231C42.8821 10.8958 42.4644 10.3535 41.7313 10.3535C40.9954 10.3535 40.5814 10.8958 40.5814 11.8231C40.5814 12.7578 40.9954 13.2959 41.7313 13.2959C42.4644 13.2959 42.8821 12.7541 42.8821 11.8231H42.8821Z" fill="white"/>
<path d="M49.1323 13.9633H48.2541L47.3674 10.8127H47.3005L46.4176 13.9633H45.5477L44.3652 9.68555H45.2239L45.9924 12.9497H46.0557L46.9376 9.68555H47.7498L48.6318 12.9497H48.6988L49.4635 9.68555H50.3101L49.1323 13.9633Z" fill="white"/>
<path d="M51.3047 9.68542H52.1197V10.365H52.1829C52.2903 10.1209 52.4713 9.9163 52.7007 9.77969C52.9302 9.64307 53.1967 9.58125 53.4631 9.60284C53.6718 9.58719 53.8814 9.61858 54.0763 9.69467C54.2712 9.77076 54.4465 9.88961 54.5891 10.0424C54.7317 10.1952 54.838 10.3781 54.9001 10.5774C54.9622 10.7767 54.9785 10.9874 54.9479 11.1939V13.9632H54.1013V11.4059C54.1013 10.7185 53.8017 10.3766 53.1756 10.3766C53.0339 10.37 52.8924 10.3941 52.7609 10.4471C52.6294 10.5001 52.5109 10.5809 52.4136 10.6839C52.3163 10.7868 52.2425 10.9096 52.1972 11.0436C52.152 11.1777 52.1363 11.32 52.1513 11.4606V13.9632H51.3047L51.3047 9.68542Z" fill="white"/>
<path d="M56.2969 8.01562H57.1435V13.9633H56.2969V8.01562Z" fill="white"/>
<path d="M58.3201 11.8222C58.2931 11.541 58.3254 11.2574 58.4148 10.9894C58.5043 10.7214 58.6489 10.475 58.8393 10.2661C59.0298 10.0571 59.262 9.89009 59.521 9.77583C59.78 9.66156 60.0601 9.60254 60.3434 9.60254C60.6266 9.60254 60.9067 9.66156 61.1657 9.77583C61.4247 9.89009 61.6569 10.0571 61.8473 10.2661C62.0378 10.475 62.1824 10.7214 62.2719 10.9894C62.3613 11.2574 62.3936 11.541 62.3666 11.8222C62.394 12.1036 62.3622 12.3876 62.273 12.656C62.1838 12.9244 62.0393 13.1713 61.8487 13.3806C61.6582 13.59 61.4258 13.7573 61.1666 13.8719C60.9073 13.9864 60.6269 14.0455 60.3434 14.0455C60.0598 14.0455 59.7794 13.9864 59.5201 13.8719C59.2609 13.7573 59.0285 13.59 58.838 13.3806C58.6474 13.1713 58.5029 12.9244 58.4137 12.656C58.3245 12.3876 58.2926 12.1036 58.3201 11.8222ZM61.4953 11.8222C61.4953 10.8949 61.0776 10.3527 60.3445 10.3527C59.6086 10.3527 59.1946 10.8949 59.1946 11.8222C59.1946 12.7569 59.6086 13.295 60.3445 13.295C61.0776 13.295 61.4953 12.7532 61.4953 11.8222H61.4953Z" fill="white"/>
<path d="M63.2578 12.7531C63.2578 11.9831 63.8328 11.5392 64.8533 11.4761L66.0153 11.4093V11.0401C66.0153 10.5882 65.7158 10.3331 65.1371 10.3331C64.6645 10.3331 64.337 10.5062 64.243 10.8086H63.4234C63.5099 10.0738 64.203 9.60254 65.1762 9.60254C66.2516 9.60254 66.8582 10.1364 66.8582 11.0401V13.9629H66.0432V13.3617H65.9763C65.8403 13.5774 65.6494 13.7532 65.423 13.8712C65.1966 13.9892 64.9429 14.0451 64.6877 14.0334C64.5077 14.052 64.3256 14.0329 64.1534 13.9771C63.9812 13.9214 63.8227 13.8302 63.6879 13.7096C63.5532 13.589 63.4453 13.4416 63.3712 13.2768C63.2972 13.1121 63.2585 12.9337 63.2578 12.7531ZM66.0153 12.3876V12.0299L64.9678 12.0967C64.377 12.1362 64.1091 12.3366 64.1091 12.7137C64.1091 13.0987 64.444 13.3227 64.9045 13.3227C65.0395 13.3364 65.1758 13.3228 65.3054 13.2828C65.4349 13.2428 65.5551 13.1772 65.6587 13.09C65.7624 13.0027 65.8474 12.8956 65.9086 12.7749C65.9699 12.6543 66.0062 12.5225 66.0153 12.3876Z" fill="white"/>
<path d="M67.9707 11.8226C67.9707 10.4709 68.6675 9.61459 69.7514 9.61459C70.0195 9.60227 70.2855 9.6663 70.5185 9.7992C70.7514 9.9321 70.9416 10.1284 71.0669 10.3651H71.1301V8.01562H71.9767V13.9633H71.1655V13.2875H71.0985C70.9636 13.5226 70.7668 13.7164 70.5293 13.848C70.2919 13.9795 70.0228 14.0438 69.7514 14.0338C68.6601 14.0339 67.9707 13.1776 67.9707 11.8226ZM68.8452 11.8226C68.8452 12.7299 69.2741 13.2759 69.9914 13.2759C70.705 13.2759 71.146 12.722 71.146 11.8263C71.146 10.9348 70.7004 10.373 69.9914 10.373C69.2788 10.373 68.8452 10.9227 68.8452 11.8226H68.8452Z" fill="white"/>
<path d="M75.4803 11.8231C75.4533 11.542 75.4856 11.2583 75.5749 10.9903C75.6643 10.7224 75.8089 10.476 75.9994 10.267C76.1899 10.058 76.4221 9.89106 76.681 9.7768C76.94 9.66254 77.2201 9.60352 77.5033 9.60352C77.7865 9.60352 78.0666 9.66254 78.3255 9.7768C78.5845 9.89106 78.8167 10.058 79.0072 10.267C79.1977 10.476 79.3422 10.7224 79.4316 10.9903C79.521 11.2583 79.5533 11.542 79.5263 11.8231C79.5538 12.1045 79.5219 12.3885 79.4328 12.6569C79.3436 12.9253 79.1991 13.1721 79.0086 13.3815C78.8181 13.5909 78.5857 13.7583 78.3265 13.8728C78.0672 13.9873 77.7868 14.0464 77.5033 14.0464C77.2198 14.0464 76.9394 13.9873 76.6801 13.8728C76.4209 13.7583 76.1885 13.5909 75.998 13.3815C75.8075 13.1721 75.663 12.9253 75.5738 12.6569C75.4847 12.3885 75.4528 12.1045 75.4803 11.8231ZM78.6555 11.8231C78.6555 10.8958 78.2378 10.3535 77.5047 10.3535C76.7688 10.3535 76.3548 10.8958 76.3548 11.8231C76.3548 12.7578 76.7688 13.2959 77.5047 13.2959C78.2378 13.2959 78.6555 12.7541 78.6555 11.8231Z" fill="white"/>
<path d="M80.6621 9.68542H81.4771V10.365H81.5404C81.6477 10.1209 81.8287 9.9163 82.0582 9.77969C82.2876 9.64307 82.5541 9.58125 82.8205 9.60284C83.0292 9.58719 83.2388 9.61858 83.4337 9.69467C83.6286 9.77076 83.8039 9.88961 83.9465 10.0424C84.0891 10.1952 84.1954 10.3781 84.2575 10.5774C84.3196 10.7767 84.336 10.9874 84.3053 11.1939V13.9632H83.4587V11.4059C83.4587 10.7185 83.1591 10.3766 82.533 10.3766C82.3913 10.37 82.2498 10.3941 82.1183 10.4471C81.9868 10.5001 81.8683 10.5809 81.771 10.6839C81.6737 10.7868 81.5999 10.9096 81.5547 11.0436C81.5094 11.1777 81.4937 11.32 81.5087 11.4606V13.9632H80.6621V9.68542Z" fill="white"/>
<path d="M89.0891 8.62012V9.70464H90.0185V10.4157H89.0891V12.6154C89.0891 13.0635 89.2742 13.2597 89.6957 13.2597C89.8036 13.2594 89.9114 13.2529 90.0185 13.2402V13.9435C89.8665 13.9706 89.7124 13.985 89.558 13.9866C88.6165 13.9866 88.2416 13.6563 88.2416 12.8316V10.4157H87.5605V9.7046H88.2416V8.62012H89.0891Z" fill="white"/>
<path d="M91.1738 8.01562H92.013V10.373H92.08C92.1925 10.1266 92.3785 9.92089 92.6126 9.78376C92.8466 9.64663 93.1174 9.5848 93.388 9.60669C93.5956 9.59543 93.8032 9.63 93.9959 9.70794C94.1886 9.78588 94.3617 9.90527 94.5028 10.0576C94.6439 10.2099 94.7496 10.3914 94.8122 10.5891C94.8749 10.7869 94.893 10.9959 94.8654 11.2015V13.9633H94.0179V11.4097C94.0179 10.7265 93.6988 10.3804 93.1006 10.3804C92.9551 10.3685 92.8087 10.3885 92.6718 10.4389C92.5348 10.4893 92.4105 10.5689 92.3076 10.6722C92.2047 10.7755 92.1257 10.9 92.0761 11.0369C92.0265 11.1738 92.0075 11.3199 92.0205 11.4649V13.9633H91.1739L91.1738 8.01562Z" fill="white"/>
<path d="M99.8021 12.8079C99.6871 13.1989 99.4379 13.5371 99.098 13.7633C98.7582 13.9896 98.3495 14.0895 97.9433 14.0455C97.6607 14.053 97.3798 13.999 97.1202 13.8873C96.8606 13.7757 96.6285 13.609 96.4399 13.3989C96.2514 13.1889 96.1109 12.9404 96.0283 12.6708C95.9458 12.4011 95.923 12.1168 95.9617 11.8375C95.924 11.5574 95.9472 11.2724 96.0296 11.002C96.112 10.7316 96.2517 10.4819 96.4392 10.27C96.6268 10.0581 96.8578 9.88884 97.1166 9.77369C97.3755 9.65854 97.6561 9.6002 97.9395 9.60261C99.1332 9.60261 99.8533 10.4158 99.8533 11.7591V12.0537H96.8241V12.101C96.8108 12.258 96.8306 12.416 96.8822 12.5649C96.9337 12.7138 97.0159 12.8504 97.1235 12.9657C97.2311 13.0811 97.3616 13.1728 97.5068 13.2349C97.652 13.2971 97.8086 13.3283 97.9665 13.3265C98.169 13.3507 98.3742 13.3144 98.5559 13.222C98.7377 13.1297 98.8878 12.9855 98.9871 12.8079L99.8021 12.8079ZM96.824 11.4293H98.9908C99.0015 11.2857 98.9819 11.1415 98.9334 11.006C98.8848 10.8704 98.8084 10.7464 98.7089 10.6421C98.6095 10.5377 98.4892 10.4552 98.3559 10.4C98.2226 10.3447 98.0792 10.3178 97.9349 10.3211C97.7885 10.3193 97.6431 10.3467 97.5075 10.4018C97.3719 10.4568 97.2487 10.5384 97.1451 10.6417C97.0416 10.7449 96.9599 10.8678 96.9047 11.0031C96.8496 11.1384 96.8222 11.2833 96.8241 11.4293H96.824Z" fill="white"/>
</g>
<defs>
<clipPath id="clip0">
<rect width="114" height="38" fill="white"/>
</clipPath>
</defs>
</svg>
