<svg width="128" height="39" viewBox="0 0 128 39" fill="none" xmlns="http://www.w3.org/2000/svg">
<g clip-path="url(#clip0)">
<path d="M123.259 38.6665H4.74074C2.13333 38.6665 0 36.529 0 33.9165V5.4165C0 2.804 2.13333 0.666504 4.74074 0.666504H123.259C125.867 0.666504 128 2.804 128 5.4165V33.9165C128 36.529 125.867 38.6665 123.259 38.6665Z" fill="black"/>
<path d="M123.259 1.4265C125.459 1.4265 127.241 3.2125 127.241 5.4165V33.9165C127.241 36.1205 125.459 37.9065 123.259 37.9065H4.74074C2.54104 37.9065 0.758519 36.1205 0.758519 33.9165V5.4165C0.758519 3.2125 2.54104 1.4265 4.74074 1.4265H123.259ZM123.259 0.666504H4.74074C2.13333 0.666504 0 2.804 0 5.4165V33.9165C0 36.529 2.13333 38.6665 4.74074 38.6665H123.259C125.867 38.6665 128 36.529 128 33.9165V5.4165C128 2.804 125.867 0.666504 123.259 0.666504Z" fill="#A6A6A6"/>
<path d="M44.9613 10.3944C44.9613 11.1924 44.7243 11.8289 44.2502 12.2944C43.7192 12.8549 43.0176 13.1399 42.1643 13.1399C41.3394 13.1399 40.6472 12.8549 40.0689 12.2849C39.4905 11.7149 39.2061 11.0024 39.2061 10.1664C39.2061 9.32087 39.4905 8.61787 40.0689 8.04787C40.6472 7.47787 41.3394 7.19287 42.1643 7.19287C42.572 7.19287 42.9607 7.26887 43.3305 7.43037C43.7003 7.59187 43.9942 7.80087 44.2218 8.06687L43.7192 8.57037C43.34 8.12387 42.828 7.89587 42.1643 7.89587C41.5669 7.89587 41.0455 8.10487 40.6093 8.53237C40.1732 8.95037 39.9551 9.50137 39.9551 10.1759C39.9551 10.8504 40.1732 11.4014 40.6093 11.8194C41.0455 12.2374 41.5669 12.4559 42.1643 12.4559C42.7995 12.4559 43.3305 12.2469 43.7572 11.8194C44.0321 11.5439 44.1933 11.1544 44.2312 10.6604H42.1643V9.97637H44.9234C44.9424 10.1189 44.9613 10.2614 44.9613 10.3944Z" fill="white" stroke="white" stroke-width="0.2" stroke-miterlimit="10"/>
<path d="M49.3322 8.01941H46.7437V9.82441H49.0762V10.5084H46.7437V12.3134H49.3322V13.0164H46.0137V7.31641H49.3322V8.01941Z" fill="white" stroke="white" stroke-width="0.2" stroke-miterlimit="10"/>
<path d="M52.4138 13.0164H51.6837V8.01941H50.0908V7.31641H53.9972V8.01941H52.4043V13.0164H52.4138Z" fill="white" stroke="white" stroke-width="0.2" stroke-miterlimit="10"/>
<path d="M56.832 13.0164V7.31641H57.5621V13.0164H56.832Z" fill="white" stroke="white" stroke-width="0.2" stroke-miterlimit="10"/>
<path d="M60.8049 13.0164H60.0748V8.01941H58.4819V7.31641H62.3883V8.01941H60.7954V13.0164H60.8049Z" fill="white" stroke="white" stroke-width="0.2" stroke-miterlimit="10"/>
<path d="M69.7933 12.2754C69.2339 12.8549 68.5418 13.1399 67.7074 13.1399C66.873 13.1399 66.1809 12.8549 65.6215 12.2754C65.0621 11.6959 64.7871 10.9929 64.7871 10.1664C64.7871 9.33987 65.0621 8.62737 65.6215 8.05737C66.1809 7.47787 66.873 7.19287 67.7074 7.19287C68.5323 7.19287 69.2244 7.47787 69.7933 8.05737C70.3527 8.63687 70.6372 9.33987 70.6372 10.1664C70.6277 11.0024 70.3527 11.7054 69.7933 12.2754ZM66.1619 11.8004C66.5791 12.2279 67.1006 12.4369 67.7074 12.4369C68.3142 12.4369 68.8357 12.2279 69.2529 11.8004C69.6701 11.3729 69.8881 10.8314 69.8881 10.1664C69.8881 9.50137 69.6796 8.95987 69.2529 8.53237C68.8357 8.10487 68.3142 7.89587 67.7074 7.89587C67.1006 7.89587 66.5791 8.10487 66.1619 8.53237C65.7447 8.95987 65.5267 9.50137 65.5267 10.1664C65.5267 10.8314 65.7447 11.3729 66.1619 11.8004Z" fill="white" stroke="white" stroke-width="0.2" stroke-miterlimit="10"/>
<path d="M71.6611 13.0164V7.31641H72.5524L75.321 11.7529H75.3494L75.321 10.6509V7.31641H76.0511V13.0164H75.2925L72.4007 8.37091H72.3722L72.4007 9.47291V13.0164H71.6611Z" fill="white" stroke="white" stroke-width="0.2" stroke-miterlimit="10"/>
<path d="M64.6069 21.3288C62.3788 21.3288 60.5583 23.0293 60.5583 25.3663C60.5583 27.6938 62.3788 29.4038 64.6069 29.4038C66.8351 29.4038 68.6555 27.6938 68.6555 25.3663C68.6555 23.0293 66.8351 21.3288 64.6069 21.3288ZM64.6069 27.8173C63.3838 27.8173 62.3314 26.8103 62.3314 25.3663C62.3314 23.9128 63.3838 22.9153 64.6069 22.9153C65.83 22.9153 66.8825 23.9128 66.8825 25.3663C66.8825 26.8103 65.8206 27.8173 64.6069 27.8173ZM55.7702 21.3288C53.542 21.3288 51.7216 23.0293 51.7216 25.3663C51.7216 27.6938 53.542 29.4038 55.7702 29.4038C57.9983 29.4038 59.8188 27.6938 59.8188 25.3663C59.8188 23.0293 57.9983 21.3288 55.7702 21.3288ZM55.7702 27.8173C54.5471 27.8173 53.4946 26.8103 53.4946 25.3663C53.4946 23.9128 54.5471 22.9153 55.7702 22.9153C56.9933 22.9153 58.0457 23.9128 58.0457 25.3663C58.0457 26.8103 56.9933 27.8173 55.7702 27.8173ZM45.2647 22.5733V24.2833H49.3607C49.2374 25.2428 48.9151 25.9553 48.4315 26.4398C47.8342 27.0383 46.905 27.6938 45.2742 27.6938C42.7521 27.6938 40.78 25.6608 40.78 23.1338C40.78 20.6068 42.7521 18.5738 45.2742 18.5738C46.63 18.5738 47.6256 19.1058 48.3557 19.7993L49.5598 18.5928C48.5358 17.6143 47.18 16.8638 45.2647 16.8638C41.8134 16.8638 38.9121 19.6758 38.9121 23.1433C38.9121 26.6013 41.8134 29.4228 45.2647 29.4228C47.1326 29.4228 48.5358 28.8148 49.6357 27.6653C50.764 26.5348 51.1148 24.9388 51.1148 23.6563C51.1148 23.2573 51.0863 22.8868 51.02 22.5828H45.2647V22.5733ZM88.2253 23.9033C87.8934 23.0008 86.8694 21.3288 84.774 21.3288C82.6976 21.3288 80.972 22.9628 80.972 25.3663C80.972 27.6273 82.6786 29.4038 84.9731 29.4038C86.822 29.4038 87.8934 28.2733 88.3296 27.6178L86.9548 26.6963C86.4997 27.3708 85.8739 27.8173 84.9731 27.8173C84.0724 27.8173 83.4277 27.3993 83.02 26.5918L88.4149 24.3593L88.2253 23.9033ZM82.726 25.2523C82.6786 23.6943 83.9302 22.8963 84.8309 22.8963C85.5326 22.8963 86.1299 23.2478 86.329 23.7513L82.726 25.2523ZM78.3456 29.1663H80.1186V17.2913H78.3456V29.1663ZM75.4443 22.2313H75.3779C74.9797 21.7563 74.2211 21.3288 73.254 21.3288C71.2345 21.3288 69.3856 23.1053 69.3856 25.3853C69.3856 27.6463 71.2345 29.4133 73.254 29.4133C74.2117 29.4133 74.9797 28.9858 75.3779 28.4918H75.4348V29.0713C75.4348 30.6198 74.6099 31.4463 73.2825 31.4463C72.2016 31.4463 71.5284 30.6673 71.2534 30.0118L69.708 30.6578C70.1536 31.7313 71.3293 33.0423 73.2825 33.0423C75.3589 33.0423 77.113 31.8168 77.113 28.8338V21.5758H75.4348V22.2313H75.4443ZM73.4057 27.8173C72.1826 27.8173 71.1586 26.7913 71.1586 25.3853C71.1586 23.9603 72.1826 22.9248 73.4057 22.9248C74.6099 22.9248 75.558 23.9698 75.558 25.3853C75.5675 26.7913 74.6194 27.8173 73.4057 27.8173ZM96.5311 17.2913H92.2928V29.1663H94.0659V24.6633H96.5406C98.5032 24.6633 100.428 23.2383 100.428 20.9773C100.428 18.7163 98.4843 17.2913 96.5311 17.2913ZM96.569 23.0103H94.0564V18.9348H96.569C97.8964 18.9348 98.6454 20.0368 98.6454 20.9678C98.6454 21.8988 97.8964 23.0103 96.569 23.0103ZM107.511 21.3098C106.231 21.3098 104.903 21.8798 104.353 23.1243L105.927 23.7798C106.259 23.1243 106.885 22.9058 107.539 22.9058C108.449 22.9058 109.388 23.4568 109.397 24.4353V24.5588C109.075 24.3783 108.392 24.1028 107.549 24.1028C105.851 24.1028 104.135 25.0338 104.135 26.7723C104.135 28.3588 105.52 29.3848 107.074 29.3848C108.26 29.3848 108.923 28.8528 109.331 28.2258H109.388V29.1473H111.095V24.5968C111.104 22.4878 109.53 21.3098 107.511 21.3098ZM107.293 27.8173C106.714 27.8173 105.908 27.5228 105.908 26.8103C105.908 25.8983 106.913 25.5468 107.786 25.5468C108.563 25.5468 108.933 25.7178 109.397 25.9458C109.265 27.0383 108.317 27.8173 107.293 27.8173ZM117.324 21.5663L115.295 26.7153H115.238L113.133 21.5663H111.227L114.385 28.7673L112.583 32.7668H114.432L119.296 21.5663H117.324ZM101.395 29.1663H103.168V17.2913H101.395V29.1663Z" fill="white"/>
<path d="M9.89855 7.82969C9.62359 8.12419 9.4624 8.58018 9.4624 9.15968V30.1737C9.4624 30.7627 9.62359 31.2187 9.89855 31.5037L9.96492 31.5702L21.7125 19.8092V19.6667V19.5242L9.96492 7.76318L9.89855 7.82969Z" fill="url(#paint0_linear)"/>
<path d="M25.6287 23.7326L21.7129 19.8091V19.6666V19.5241L25.6287 15.6006L25.7141 15.6481L30.3505 18.2891C31.6779 19.0396 31.6779 20.2746 30.3505 21.0346L25.7141 23.6756L25.6287 23.7326Z" fill="url(#paint1_linear)"/>
<path d="M25.714 23.6755L21.7129 19.6665L9.89893 31.5035C10.3351 31.969 11.0557 32.026 11.8711 31.5605L25.714 23.6755Z" fill="url(#paint2_linear)"/>
<path d="M25.7138 15.6576L11.8613 7.77261C11.0459 7.30711 10.3253 7.36411 9.88916 7.82961L21.7126 19.6666L25.7138 15.6576Z" fill="url(#paint3_linear)"/>
<path opacity="0.2" d="M25.6282 23.5903L11.8611 31.4278C11.0931 31.8648 10.401 31.8363 9.96481 31.4373L9.89844 31.5038L9.96481 31.5703C10.4104 31.9693 11.0931 31.9978 11.8611 31.5608L25.7135 23.6758L25.6282 23.5903Z" fill="black"/>
<path opacity="0.12" d="M9.89855 31.371C9.62359 31.0765 9.4624 30.6205 9.4624 30.041V30.1835C9.4624 30.7725 9.62359 31.2285 9.89855 31.5135L9.96492 31.447L9.89855 31.371Z" fill="black"/>
<path opacity="0.12" d="M30.3504 20.9015L25.6191 23.59L25.7045 23.6755L30.3409 21.0345C31.0046 20.6545 31.3365 20.1605 31.3365 19.6665C31.2891 20.113 30.9572 20.5595 30.3504 20.9015Z" fill="black"/>
<path opacity="0.25" d="M11.8614 7.90581L30.3503 18.4318C30.9476 18.7738 31.289 19.2108 31.3459 19.6668C31.3459 19.1728 31.014 18.6693 30.3503 18.2988L11.8614 7.77281C10.534 7.02231 9.45312 7.64931 9.45312 9.16931V9.31181C9.45312 7.78231 10.5435 7.15531 11.8614 7.90581Z" fill="white"/>
</g>
<defs>
<linearGradient id="paint0_linear" x1="20.6692" y1="8.9409" x2="4.72598" y2="24.8531" gradientUnits="userSpaceOnUse">
<stop stop-color="#00A0FF"/>
<stop offset="0.00657445" stop-color="#00A1FF"/>
<stop offset="0.2601" stop-color="#00BEFF"/>
<stop offset="0.5122" stop-color="#00D2FF"/>
<stop offset="0.7604" stop-color="#00DFFF"/>
<stop offset="1" stop-color="#00E3FF"/>
</linearGradient>
<linearGradient id="paint1_linear" x1="32.0803" y1="19.6679" x2="9.13808" y2="19.6679" gradientUnits="userSpaceOnUse">
<stop stop-color="#FFE000"/>
<stop offset="0.4087" stop-color="#FFBD00"/>
<stop offset="0.7754" stop-color="#FFA500"/>
<stop offset="1" stop-color="#FF9C00"/>
</linearGradient>
<linearGradient id="paint2_linear" x1="23.5399" y1="21.8478" x2="1.91959" y2="43.426" gradientUnits="userSpaceOnUse">
<stop stop-color="#FF3A44"/>
<stop offset="1" stop-color="#C31162"/>
</linearGradient>
<linearGradient id="paint3_linear" x1="6.9189" y1="0.834005" x2="16.5733" y2="10.4695" gradientUnits="userSpaceOnUse">
<stop stop-color="#32A071"/>
<stop offset="0.0685" stop-color="#2DA771"/>
<stop offset="0.4762" stop-color="#15CF74"/>
<stop offset="0.8009" stop-color="#06E775"/>
<stop offset="1" stop-color="#00F076"/>
</linearGradient>
<clipPath id="clip0">
<rect width="128" height="38" fill="white" transform="translate(0 0.666504)"/>
</clipPath>
</defs>
</svg>
