<svg width="33" height="32" viewBox="0 0 33 32" fill="none" xmlns="http://www.w3.org/2000/svg">
<path d="M16.5 0C7.38727 0 0 7.16342 0 16C0 24.8366 7.38727 32 16.5 32C25.6127 32 33 24.8366 33 16C33 7.16342 25.6127 0 16.5 0ZM10.3176 26.8329H5.67904V12.3607H10.3176V26.8329ZM7.99933 10.3824C6.51256 10.3824 5.30903 9.21371 5.30903 7.77395C5.30937 6.33551 6.51256 5.16681 7.99933 5.16681C9.48206 5.16681 10.6873 6.33551 10.6873 7.77395C10.6873 9.21404 9.48172 10.3824 7.99933 10.3824ZM27.6906 26.8329H23.0558V19.7948C23.0558 18.1164 23.0237 15.9578 20.6447 15.9578C18.2322 15.9578 17.8612 17.7858 17.8612 19.6734V26.8325H13.2267V12.3607H17.6755V14.3383H17.738C18.3575 13.2004 19.8699 12.0009 22.1267 12.0009C26.8237 12.0009 27.6906 14.9983 27.6906 18.8949V26.8329Z" fill="white"/>
</svg>
