<svg width="24" height="24" viewBox="0 0 24 24" fill="none" xmlns="http://www.w3.org/2000/svg">
<path d="M12 0C5.37256 0 0 5.37256 0 12C0 18.6274 5.37256 24 12 24C18.6274 24 24 18.6274 24 12C24 5.37256 18.6274 0 12 0ZM7.50371 20.1246H4.13021V9.27051H7.50371V20.1246ZM5.8177 7.7868C4.73641 7.7868 3.86112 6.91028 3.86112 5.83047C3.86136 4.75163 4.73641 3.87511 5.8177 3.87511C6.89604 3.87511 7.77256 4.75163 7.77256 5.83047C7.77256 6.91053 6.8958 7.7868 5.8177 7.7868ZM20.1386 20.1246H16.7678V14.8461C16.7678 13.5873 16.7445 11.9683 15.0143 11.9683C13.2598 11.9683 12.99 13.3393 12.99 14.755V20.1244H9.6194V9.27051H12.8549V10.7537H12.9003C13.3509 9.90028 14.4508 9.00068 16.0922 9.00068C19.5081 9.00068 20.1386 11.2487 20.1386 14.1712V20.1246Z" fill="white"/>
</svg>
