<svg width="20" height="20" viewBox="0 0 20 20" fill="none" xmlns="http://www.w3.org/2000/svg">
<g clip-path="url(#clip0)">
<path d="M36 0H0V20H36V0Z" fill="#B22234"/>
<path d="M0 2.30762H36H0ZM36 5.38454H0H36ZM0 8.46146H36H0ZM36 11.5384H0H36ZM0 14.6153H36H0ZM36 17.6922H0H36Z" fill="black"/>
<path fill-rule="evenodd" clip-rule="evenodd" d="M0 1.53809H36V3.07655H0V1.53809ZM36 6.15347H0V4.61501H36V6.15347ZM0 7.69193H36V9.2304H0V7.69193ZM36 12.3073H0V10.7689H36V12.3073ZM0 13.8458H36V15.3842H0V13.8458ZM0 16.9227H36V18.4612H0V16.9227Z" fill="white"/>
<path d="M14.4 0H0V10.7692H14.4V0Z" fill="#3C3B6E"/>
<path d="M1.19899 0.461914L1.54167 1.57516L0.644531 0.887134H1.75346L0.856317 1.57516L1.19899 0.461914Z" fill="white"/>
</g>
<defs>
<clipPath id="clip0">
<rect width="20" height="20" rx="10" fill="white"/>
</clipPath>
</defs>
</svg>
